<?xml version="1.0" encoding="iso-8859-1"?>
<!-- Generator: Adobe Illustrator 19.0.0, SVG Export Plug-In . SVG Version: 6.00 Build 0)  -->
      <svg
        version="1.1"
        id="Layer_1"
        xmlns="http://www.w3.org/2000/svg"
        xmlns:xlink="http://www.w3.org/1999/xlink"
        x="0px"
        y="0px"
        viewBox="0 0 512 512"
        style="enable-background: new 0 0 512 512"
        xml:space="preserve"
      >
        <defs>
          <linearGradient id="linear" x1="0%" y1="0%" x2="100%" y2="0%">
            <stop offset="0%" stop-color="#10b77f" />
            <stop offset="15%" stop-color="#48b161" />
            <stop offset="34%" stop-color="#65a63f" />
            <stop offset="53%" stop-color="#819f1d" />
            <stop offset="67%" stop-color="#999400" />
            <stop offset="78%" stop-color="#ad8200" />
            <stop offset="86%" stop-color="#c27100" />
            <stop offset="92%" stop-color="#d65c05" />
            <stop offset="97%" stop-color="#e53f2a" />
            <stop offset="100%" stop-color="#ed1245" />
          </linearGradient>
        </defs>
        <g>
          <g>
            <g>
              <path
                d="M200.533,145.067c7.057,0,12.8-5.743,12.8-12.8s-5.743-12.8-12.8-12.8s-12.8,5.743-12.8,12.8
				S193.476,145.067,200.533,145.067z"
                fill="url(#linear)"
              />
              <path
                d="M311.467,145.067c7.057,0,12.8-5.743,12.8-12.8s-5.743-12.8-12.8-12.8s-12.8,5.743-12.8,12.8
				S304.41,145.067,311.467,145.067z"
                fill="url(#linear)"
              />
              <path
                d="M428.425,376.286c3.319-20.198,0.222-36.591-9.293-48.794c-15.667-20.062-42.53-20.292-43.665-20.292
				c-4.702,0-8.491,3.797-8.516,8.499c-0.017,4.693,3.78,8.533,8.482,8.567c0.205,0,19.866,0.324,30.328,13.833
				c6.75,8.713,8.533,21.453,5.393,37.854c-34.756,4.83-44.22,45.585-44.22,67.78c0,4.71,3.806,8.525,8.516,8.525h0.017
				c4.702,0,8.516-3.806,8.533-8.508c0.009-2.099,0.555-51.217,34.133-51.217c29.312,0,42.667,22.118,42.667,42.667
				c0,28.774-13.355,59.733-42.667,59.733H384c-4.719,0-8.533,3.823-8.533,8.533S379.281,512,384,512h34.133
				c41.045,0,59.733-39.808,59.733-76.8C477.867,408.243,460.894,381.073,428.425,376.286z"
                fill="url(#linear)"
              />

              <path
                d="M349.85,441.404c-8.141-7.552-20.352-10.505-33.911-8.516c0.495-16.632,2.21-48.964,8.073-72.414
				c1.143-4.574-1.638-9.207-6.212-10.351c-4.574-1.178-9.207,1.638-10.342,6.204c-7.168,28.663-8.491,67.985-8.73,82.099
				l-12.407,6.212c-4.216,2.108-5.931,7.228-3.814,11.443c1.493,2.995,4.506,4.719,7.637,4.719c1.28,0,2.586-0.29,3.806-0.896
				l16.401-8.201c11.656-3.772,22.323-2.944,27.913,2.219c7.33,6.793,5.854,20.284,3.328,30.404
				c-1.468,5.845-5.402,10.607-8.789,10.607h-42.667c-14.114,0-25.6-11.486-25.6-25.6v-68.267c0-4.71-3.814-8.533-8.533-8.533
				c-4.719,0-8.533,3.823-8.533,8.533v68.267c0,14.114-11.486,25.6-25.6,25.6H179.2c-3.593,0-7.799-4.83-8.653-9.941
				c-2.944-17.638-1.681-29.824,3.567-34.304c4.531-3.866,13.824-3.499,27.554,1.024l16.384,8.192
				c1.22,0.606,2.526,0.896,3.806,0.896c3.132,0,6.144-1.724,7.637-4.719c2.116-4.215,0.401-9.335-3.814-11.443l-12.407-6.212
				c-0.239-14.114-1.562-53.436-8.73-82.099c-1.143-4.565-5.777-7.373-10.342-6.204c-4.574,1.143-7.356,5.777-6.212,10.351
				c5.803,23.211,7.535,55.177,8.064,71.945c-11.162-2.415-23.689-2.679-33.024,5.291c-10.411,8.9-13.457,25.284-9.31,50.099
				C155.699,499.703,165.777,512,179.2,512h42.667c13.943,0,26.342-6.724,34.133-17.092C263.791,505.276,276.19,512,290.133,512
				H332.8c13.372,0,22.511-12.194,25.344-23.526C364.749,462.029,357.282,448.282,349.85,441.404z"
                fill="url(#linear)"
              />
              <path
                d="M136.567,324.267c4.702-0.017,8.499-3.831,8.499-8.533c0-4.71-3.814-8.533-8.533-8.533
				c-1.135,0-27.998,0.23-43.665,20.292c-9.515,12.203-12.612,28.595-9.293,48.794c-32.469,4.787-49.442,31.957-49.442,58.914
				c0,36.992,18.688,76.8,59.733,76.8H128c4.719,0,8.533-3.823,8.533-8.533s-3.814-8.533-8.533-8.533H93.867
				c-29.312,0-42.667-30.959-42.667-59.733c0-20.548,13.355-42.667,42.667-42.667c33.579,0,34.125,49.118,34.133,51.217
				c0.017,4.702,3.831,8.508,8.533,8.508h0.017c4.71,0,8.516-3.814,8.516-8.525c0-22.195-9.463-62.95-44.22-67.78
				c-3.14-16.401-1.357-29.141,5.393-37.854C116.676,324.625,136.269,324.275,136.567,324.267z"
                fill="url(#linear)"
              />
              <path
                d="M256,290.133c40.832,0,68.267-48.538,68.267-93.867c0-21.495-28.612-24.533-45.551-25.242
				c-3.081-4.386-9.438-8.892-22.716-8.892c-13.278,0-19.635,4.506-22.716,8.892c-16.939,0.708-45.551,3.746-45.551,25.242
				C187.733,241.596,215.168,290.133,256,290.133z M256,179.2c4.855,0,7.228,0.819,8.243,1.34
				c-1.263,6.989-4.719,15.727-8.243,15.727c-3.533,0-6.955-8.644-8.243-15.727C248.781,180.011,251.153,179.2,256,179.2z
				 M232.013,188.22c1.988,7.791,6.366,18.756,15.454,23.151v10.496c0,7.603,0,11.793-12.348,17.971
				c-4.215,2.108-5.931,7.228-3.814,11.443c2.108,4.215,7.219,5.931,11.443,3.823c5.837-2.918,10.112-5.948,13.252-9.071
				c3.14,3.123,7.415,6.153,13.252,9.071c1.22,0.606,2.526,0.896,3.806,0.896c3.132,0,6.144-1.724,7.637-4.719
				c2.116-4.215,0.401-9.335-3.814-11.443c-12.348-6.178-12.348-10.368-12.348-17.971v-10.496
				c9.105-4.386,13.474-15.36,15.462-23.151c25.737,1.562,27.204,6.912,27.204,8.047c0,40.909-23.927,76.8-51.2,76.8
				s-51.2-35.891-51.2-76.8C204.8,195.132,206.276,189.79,232.013,188.22z"
                fill="url(#linear)"
              />
              <path
                d="M256,341.333c77.662,0,153.6-73.293,153.6-128c0-49.69-11.776-94.797-33.425-129.007
				c19.098-4.233,33.425-21.308,33.425-41.66C409.6,19.14,390.46,0,366.933,0c-21.001,0-38.4,15.283-41.916,35.285
				C305.971,23.45,282.206,17.067,256,17.067c-26.598,0-50.04,6.204-69.035,18.057C183.39,15.198,166.007,0,145.067,0
				C121.54,0,102.4,19.14,102.4,42.667c0,20.352,14.328,37.427,33.425,41.66c-21.649,34.21-33.425,79.317-33.425,129.007
				C102.4,268.041,178.338,341.333,256,341.333z M159.309,71.578c-1.894-3.046-5.478-4.582-8.977-3.866
				c-16.154,3.328-30.865-9.199-30.865-25.045c0-14.114,11.486-25.6,25.6-25.6s25.6,11.486,25.6,25.6v5.188
				c-0.572,0.546-1.212,1.024-1.766,1.579c-3.337,3.337-3.337,8.73,0,12.066c3.337,3.336,8.73,3.336,12.066,0
				C203.58,38.886,234.257,34.133,256,34.133c30.754,0,57.404,9.762,75.017,27.486c1.664,1.673,3.857,2.517,6.05,2.517
				c2.176,0,4.352-0.828,6.016-2.483c3.345-3.328,3.362-8.721,0.034-12.066c-0.555-0.572-1.212-1.05-1.784-1.604v-5.316
				c0-14.114,11.486-25.6,25.6-25.6s25.6,11.486,25.6,25.6c0,15.838-14.652,28.407-30.857,25.045
				c-3.465-0.674-7.091,0.819-8.977,3.866c-1.894,3.046-1.673,6.938,0.538,9.754c25.335,32.384,39.296,79.258,39.296,132.002
				c0,53.564-80.137,110.933-136.533,110.933s-136.533-57.37-136.533-110.933c0-52.745,13.961-99.627,39.305-131.994
				C160.981,78.515,161.203,74.624,159.309,71.578z"
                fill="url(#linear)"
              />
            </g>
          </g>
        </g>
        <g></g>
        <g></g>
        <g></g>
        <g></g>
        <g></g>
        <g></g>
        <g></g>
        <g></g>
        <g></g>
        <g></g>
        <g></g>
        <g></g>
        <g></g>
        <g></g>
        <g></g>
      </svg>